<svg width="45" height="13" viewBox="0 0 45 13" fill="none" xmlns="http://www.w3.org/2000/svg">
<path d="M10.48 10.528C9.36 11.648 7.98933 12.208 6.368 12.208C4.74667 12.208 3.37067 11.648 2.24 10.528C1.12 9.39733 0.56 8.02133 0.56 6.4C0.56 4.77867 1.12 3.408 2.24 2.288C3.37067 1.15733 4.74667 0.591999 6.368 0.591999C7.98933 0.591999 9.36 1.15733 10.48 2.288C11.6107 3.408 12.176 4.77867 12.176 6.4C12.176 8.02133 11.6107 9.39733 10.48 10.528ZM3.536 9.28C4.304 10.0373 5.248 10.416 6.368 10.416C7.488 10.416 8.42667 10.0373 9.184 9.28C9.952 8.512 10.336 7.552 10.336 6.4C10.336 5.248 9.952 4.29333 9.184 3.536C8.42667 2.768 7.488 2.384 6.368 2.384C5.248 2.384 4.304 2.768 3.536 3.536C2.77867 4.29333 2.4 5.248 2.4 6.4C2.4 7.552 2.77867 8.512 3.536 9.28ZM20.0784 4H21.8064V12H20.0784V10.848C19.4277 11.7547 18.4944 12.208 17.2784 12.208C16.1797 12.208 15.241 11.8027 14.4624 10.992C13.6837 10.1707 13.2944 9.17333 13.2944 8C13.2944 6.816 13.6837 5.81867 14.4624 5.008C15.241 4.19733 16.1797 3.792 17.2784 3.792C18.4944 3.792 19.4277 4.24 20.0784 5.136V4ZM15.7424 9.84C16.2224 10.32 16.825 10.56 17.5504 10.56C18.2757 10.56 18.8784 10.32 19.3584 9.84C19.8384 9.34933 20.0784 8.736 20.0784 8C20.0784 7.264 19.8384 6.656 19.3584 6.176C18.8784 5.68533 18.2757 5.44 17.5504 5.44C16.825 5.44 16.2224 5.68533 15.7424 6.176C15.2624 6.656 15.0224 7.264 15.0224 8C15.0224 8.736 15.2624 9.34933 15.7424 9.84ZM25.3256 6.208C25.3256 6.47467 25.4696 6.688 25.7576 6.848C26.0563 6.99733 26.4136 7.13067 26.8296 7.248C27.2563 7.35467 27.683 7.48267 28.1096 7.632C28.5363 7.78133 28.8936 8.03733 29.1816 8.4C29.4803 8.752 29.6296 9.2 29.6296 9.744C29.6296 10.512 29.331 11.1147 28.7336 11.552C28.147 11.9893 27.4056 12.208 26.5096 12.208C25.7203 12.208 25.043 12.0427 24.4776 11.712C23.9123 11.3813 23.5016 10.9227 23.2456 10.336L24.7336 9.472C25.011 10.24 25.603 10.624 26.5096 10.624C27.4163 10.624 27.8696 10.3253 27.8696 9.728C27.8696 9.472 27.7203 9.264 27.4216 9.104C27.1336 8.944 26.7763 8.81067 26.3496 8.704C25.9336 8.58667 25.5123 8.45333 25.0856 8.304C24.659 8.15467 24.2963 7.90933 23.9976 7.568C23.7096 7.216 23.5656 6.77333 23.5656 6.24C23.5656 5.504 23.843 4.912 24.3976 4.464C24.963 4.016 25.6616 3.792 26.4936 3.792C27.155 3.792 27.7416 3.94133 28.2536 4.24C28.7763 4.528 29.1763 4.93333 29.4536 5.456L27.9976 6.272C27.7203 5.664 27.219 5.36 26.4936 5.36C26.163 5.36 25.8856 5.43467 25.6616 5.584C25.4376 5.72267 25.3256 5.93067 25.3256 6.208ZM32.6869 2.48C32.4735 2.69333 32.2175 2.8 31.9189 2.8C31.6202 2.8 31.3589 2.69333 31.1349 2.48C30.9215 2.256 30.8149 1.99467 30.8149 1.696C30.8149 1.39733 30.9215 1.14133 31.1349 0.927999C31.3482 0.703999 31.6095 0.591999 31.9189 0.591999C32.2282 0.591999 32.4895 0.703999 32.7029 0.927999C32.9162 1.14133 33.0229 1.39733 33.0229 1.696C33.0229 1.99467 32.9109 2.256 32.6869 2.48ZM31.0549 12V4H32.7829V12H31.0549ZM36.2944 6.208C36.2944 6.47467 36.4384 6.688 36.7264 6.848C37.025 6.99733 37.3824 7.13067 37.7984 7.248C38.225 7.35467 38.6517 7.48267 39.0784 7.632C39.505 7.78133 39.8624 8.03733 40.1504 8.4C40.449 8.752 40.5984 9.2 40.5984 9.744C40.5984 10.512 40.2997 11.1147 39.7024 11.552C39.1157 11.9893 38.3744 12.208 37.4784 12.208C36.689 12.208 36.0117 12.0427 35.4464 11.712C34.881 11.3813 34.4704 10.9227 34.2144 10.336L35.7024 9.472C35.9797 10.24 36.5717 10.624 37.4784 10.624C38.385 10.624 38.8384 10.3253 38.8384 9.728C38.8384 9.472 38.689 9.264 38.3904 9.104C38.1024 8.944 37.745 8.81067 37.3184 8.704C36.9024 8.58667 36.481 8.45333 36.0544 8.304C35.6277 8.15467 35.265 7.90933 34.9664 7.568C34.6784 7.216 34.5344 6.77333 34.5344 6.24C34.5344 5.504 34.8117 4.912 35.3664 4.464C35.9317 4.016 36.6304 3.792 37.4624 3.792C38.1237 3.792 38.7104 3.94133 39.2224 4.24C39.745 4.528 40.145 4.93333 40.4224 5.456L38.9664 6.272C38.689 5.664 38.1877 5.36 37.4624 5.36C37.1317 5.36 36.8544 5.43467 36.6304 5.584C36.4064 5.72267 36.2944 5.93067 36.2944 6.208ZM43.8491 11.84C43.6145 12.0747 43.3318 12.192 43.0011 12.192C42.6705 12.192 42.3878 12.0747 42.1531 11.84C41.9185 11.6053 41.8011 11.3227 41.8011 10.992C41.8011 10.6613 41.9131 10.3787 42.1371 10.144C42.3718 9.90933 42.6598 9.792 43.0011 9.792C43.3318 9.792 43.6145 9.90933 43.8491 10.144C44.0838 10.3787 44.2011 10.6613 44.2011 10.992C44.2011 11.3227 44.0838 11.6053 43.8491 11.84Z" fill="white"/>
</svg>
